<svg xmlns="http://www.w3.org/2000/svg" version="1.1" xmlns:xlink="http://www.w3.org/1999/xlink" width="50" height="50" x="0" y="0" viewBox="0 0 100 100" style="enable-background:new 0 0 512 512" xml:space="preserve" class=""><g><path d="m95.88 84.52-9.94-9.94L92.55 69a1.25 1.25 0 0 0-.47-2.16l-7.43-2.04a42.12 42.12 0 0 0-5.76-44.27 1.78 1.78 0 0 0-.22-.26 42.16 42.16 0 0 0-64.82 0 1.26 1.26 0 0 0-.25.31 42.13 42.13 0 0 0 0 53.47 1.43 1.43 0 0 0 .22.26 42.16 42.16 0 0 0 52.59 10.06l1.78 6.39a1.27 1.27 0 0 0 .94.89 1.3 1.3 0 0 0 1.23-.42l5.54-6.61 9.94 9.94a1.21 1.21 0 0 0 .88.37 1.25 1.25 0 0 0 .89-.37l8.27-8.27a1.25 1.25 0 0 0 0-1.77ZM36 8.93c-4.43 3.49-8.15 9.15-10.7 16.18A42.71 42.71 0 0 1 16.55 21 39.79 39.79 0 0 1 36 8.93Zm-21 14a44.85 44.85 0 0 0 9.54 4.58A66.18 66.18 0 0 0 21.62 46h-15A39.48 39.48 0 0 1 15 22.9ZM6.57 48.54h15.05a66.23 66.23 0 0 0 2.87 18.56A45.09 45.09 0 0 0 15 71.68a39.51 39.51 0 0 1-8.43-23.14Zm10 25.07a43.24 43.24 0 0 1 8.73-4.15c2.55 7 6.27 12.7 10.7 16.19a39.73 39.73 0 0 1-19.45-12.04ZM45 86.94c-7.3-.73-13.66-7.83-17.4-18.23a65.17 65.17 0 0 1 17.4-2.6Zm0-23.33a67.73 67.73 0 0 0-18.19 2.73 65.27 65.27 0 0 1-2.71-17.8H45ZM45 46H24.11a65.34 65.34 0 0 1 2.71-17.81A67.33 67.33 0 0 0 45 31Zm0-17.58a64.77 64.77 0 0 1-17.4-2.6C31.35 15.46 37.71 8.37 45 7.64Zm37.22 35.7-12.57-3.51a69.57 69.57 0 0 0 1.25-12.07h15a39.51 39.51 0 0 1-3.68 15.58ZM85.94 46h-15A66.59 66.59 0 0 0 68 27.48a44.94 44.94 0 0 0 9.55-4.58A39.48 39.48 0 0 1 85.94 46ZM76 21a42.71 42.71 0 0 1-8.73 4.15c-2.55-7-6.27-12.69-10.7-16.18A39.79 39.79 0 0 1 76 21ZM47.51 7.64c7.29.73 13.66 7.82 17.39 18.22a64.69 64.69 0 0 1-17.39 2.6Zm0 23.32a67.32 67.32 0 0 0 18.18-2.73A65 65 0 0 1 68.4 46H47.51Zm0 17.58H68.4a69.12 69.12 0 0 1-1.14 11.4l-6.18-1.72a1.25 1.25 0 0 0-1.54 1.54L61 65.15a69.62 69.62 0 0 0-13.53-1.54Zm0 17.57a67.1 67.1 0 0 1 14.3 1.77l1.39 5C59.38 81 53.79 86.31 47.51 86.94Zm9 19.54a30.64 30.64 0 0 0 7.62-9.36l1.57 5.6a39.2 39.2 0 0 1-9.17 3.76Zm30.19 6.26-10-10a1.22 1.22 0 0 0-.88-.37h-.06a1.25 1.25 0 0 0-.9.45L70 87.8l-7.46-26.58 26.59 7.42-5.84 4.9a1.25 1.25 0 0 0-.45.9 1.27 1.27 0 0 0 .37.94l10 10Z" data-name="Layer 32" fill="#e19c23" opacity="1" data-original="#000000" class=""></path></g></svg>